<svg xmlns="http://www.w3.org/2000/svg" width="189.45" height="35" viewBox="0 0 189.45 35"><rect class="svg__rect" x="0" y="0" width="98.97" height="35" fill="#E46C17"/><rect class="svg__rect" x="96.97" y="0" width="92.48" height="35" fill="#D35B09"/><path class="svg__text" d="M17.33 22L14.22 22L14.22 13.47L17.14 13.47Q18.59 13.47 19.34 14.05Q20.10 14.63 20.10 15.78L20.10 15.78Q20.10 16.36 19.78 16.83Q19.47 17.30 18.86 17.56L18.86 17.56Q19.55 17.75 19.93 18.26Q20.31 18.78 20.31 19.51L20.31 19.51Q20.31 20.71 19.53 21.36Q18.76 22 17.33 22L17.33 22ZM15.70 18.15L15.70 20.82L17.35 20.82Q18.04 20.82 18.44 20.47Q18.83 20.13 18.83 19.51L18.83 19.51Q18.83 18.18 17.47 18.15L17.47 18.15L15.70 18.15ZM15.70 14.66L15.70 17.06L17.15 17.06Q17.84 17.06 18.23 16.75Q18.62 16.43 18.62 15.86L18.62 15.86Q18.62 15.23 18.26 14.95Q17.90 14.66 17.14 14.66L17.14 14.66L15.70 14.66ZM24.64 19.16L24.64 19.16L24.64 13.47L26.12 13.47L26.12 19.18Q26.12 20.03 26.55 20.48Q26.98 20.93 27.83 20.93L27.83 20.93Q29.54 20.93 29.54 19.13L29.54 19.13L29.54 13.47L31.02 13.47L31.02 19.17Q31.02 20.53 30.15 21.32Q29.28 22.12 27.83 22.12L27.83 22.12Q26.36 22.12 25.50 21.33Q24.64 20.55 24.64 19.16ZM37.15 22L35.67 22L35.67 13.47L37.15 13.47L37.15 22ZM47.32 22L41.96 22L41.96 13.47L43.44 13.47L43.44 20.82L47.32 20.82L47.32 22ZM53.90 22L51.44 22L51.44 13.47L53.96 13.47Q55.09 13.47 55.97 13.97Q56.84 14.48 57.32 15.40Q57.81 16.33 57.81 17.52L57.81 17.52L57.81 17.95Q57.81 19.16 57.32 20.08Q56.84 21.00 55.94 21.50Q55.05 22 53.90 22L53.90 22ZM52.92 14.66L52.92 20.82L53.89 20.82Q55.06 20.82 55.68 20.09Q56.31 19.36 56.32 17.99L56.32 17.99L56.32 17.52Q56.32 16.13 55.71 15.40Q55.11 14.66 53.96 14.66L53.96 14.66L52.92 14.66ZM71.36 22L68.25 22L68.25 13.47L71.17 13.47Q72.62 13.47 73.37 14.05Q74.13 14.63 74.13 15.78L74.13 15.78Q74.13 16.36 73.81 16.83Q73.50 17.30 72.89 17.56L72.89 17.56Q73.58 17.75 73.96 18.26Q74.33 18.78 74.33 19.51L74.33 19.51Q74.33 20.71 73.56 21.36Q72.79 22 71.36 22L71.36 22ZM69.73 18.15L69.73 20.82L71.38 20.82Q72.07 20.82 72.47 20.47Q72.86 20.13 72.86 19.51L72.86 19.51Q72.86 18.18 71.50 18.15L71.50 18.15L69.73 18.15ZM69.73 14.66L69.73 17.06L71.18 17.06Q71.87 17.06 72.26 16.75Q72.65 16.43 72.65 15.86L72.65 15.86Q72.65 15.23 72.29 14.95Q71.93 14.66 71.17 14.66L71.17 14.66L69.73 14.66ZM80.84 18.86L77.98 13.47L79.63 13.47L81.59 17.51L83.55 13.47L85.19 13.47L82.33 18.86L82.33 22L80.84 22L80.84 18.86Z" fill="#FFFFFF"/><path class="svg__text" d="M116.93 20.91L111.02 18.72L111.02 16.88L116.93 14.69L116.93 16.45L113.10 17.80L116.93 19.16L116.93 20.91ZM125.92 22L121.95 22L121.95 13.60L125.92 13.60Q127.31 13.60 128.37 14.12Q129.44 14.63 130.03 15.58Q130.62 16.53 130.62 17.80L130.62 17.80Q130.62 19.07 130.03 20.02Q129.44 20.97 128.37 21.48Q127.31 22 125.92 22L125.92 22ZM124.33 15.50L124.33 20.10L125.83 20.10Q126.91 20.10 127.56 19.49Q128.21 18.88 128.21 17.80L128.21 17.80Q128.21 16.72 127.56 16.11Q126.91 15.50 125.83 15.50L125.83 15.50L124.33 15.50ZM136.76 22L134.34 22L138.05 13.60L140.39 13.60L144.11 22L141.64 22L140.98 20.37L137.43 20.37L136.76 22ZM139.20 15.93L138.12 18.61L140.28 18.61L139.20 15.93ZM150.64 22L148.26 22L148.26 13.60L152.10 13.60Q153.25 13.60 154.08 13.98Q154.92 14.35 155.38 15.06Q155.84 15.76 155.84 16.71L155.84 16.71Q155.84 17.62 155.41 18.30Q154.98 18.98 154.19 19.36L154.19 19.36L156.00 22L153.46 22L151.93 19.77L150.64 19.77L150.64 22ZM150.64 15.47L150.64 17.93L151.96 17.93Q152.69 17.93 153.06 17.61Q153.43 17.29 153.43 16.71L153.43 16.71Q153.43 16.12 153.06 15.79Q152.69 15.47 151.96 15.47L151.96 15.47L150.64 15.47ZM162.42 15.48L159.83 15.48L159.83 13.60L167.36 13.60L167.36 15.48L164.79 15.48L164.79 22L162.42 22L162.42 15.48ZM177.50 18.72L171.59 20.91L171.59 19.16L175.41 17.80L171.59 16.45L171.59 14.69L177.50 16.88L177.50 18.72Z" fill="#FFFFFF" x="109.97"/></svg>